<?xml version="1.0" encoding="utf-8"?>
<svg id="techniktilwebsiteconcept1" image-rendering="auto" baseProfile="basic" version="1.1" x="0px"
	y="0px" width="54.05" height="54.75" xmlns="http://www.w3.org/2000/svg"
	xmlns:xlink="http://www.w3.org/1999/xlink">
	<g id="download-icon" overflow="visible">
		<path fill="#FDE541" stroke="none"
			d="M42.45 18.6L41.05 18.1 28.25 25.7 27.05 1.4Q23.65 -1.7 20.9 2.1L20.55 25.25Q17.75 21 12.65 20.5 11.7 21 11.6 21.7 10.65 32.2 23.65 36.95 24.45 36.85 25.15 36.8 41 32.4 42.45 18.6M48.3 32.5Q45.55 36.85 45.55 42.65 27.7 48.4 8.6 44.45 10.3 36.95 7.75 31L5.6 30.15Q-2.15 36.25 .85 49.6 1 50.55 1.6 50.65 20.55 57.35 41.65 53.15 59.15 49.95 52 32.65L49 31.95Q48.55 32.15 48.3 32.5Z" />
	</g>
</svg>