<?xml version="1.0" encoding="utf-8"?>
<svg id="techniktilwebsiteconcept1" image-rendering="auto" baseProfile="basic" version="1.1" x="0px"
	y="0px" width="50.4" height="57.1" xmlns="http://www.w3.org/2000/svg"
	xmlns:xlink="http://www.w3.org/1999/xlink">
	<g id="trash-icon" overflow="visible">
		<path fill="#FDE541" stroke="none"
			d="M47.2 24.8Q47.4 21.2 45.85 18.55 41.8 12 32.85 15.1L9.25 15.95 7.15 15.35 5.3 16.1Q1.05 32.85 3.2 50.25 3.45 52.65 5.7 53.5 22.75 59.45 40.6 55.5 46.2 41.2 47.2 24.8M34.05 23.55L38.2 24.3 35.35 46.8 34.05 23.55M23 24.65L26.3 24.65 26.8 47.75 24.65 47.9 22.95 48.5 23 24.65M13.95 24.55L15.35 24.55 14.05 47.4 11.65 46.7Q10.6 36 11.3 25.35L13.95 24.55M50.4 7.75Q49.1 7.1 47.8 6.4 43.6 4.3 39.1 4.25L34.2 4.25Q32.3 2 29.15 .7 26.45 -.4 24.15 .2 12.6 3.55 1.15 6.2L.1 8.3Q-.3 9.85 1.15 10.35 9 13.6 18.45 12.75 25.35 11.8 32.15 13 44.45 14.75 50.4 7.75Z" />
	</g>
</svg>